<?xml version="1.0" encoding="UTF-8"?>
<svg id="Layer_1" xmlns="http://www.w3.org/2000/svg" version="1.1" viewBox="0 0 300 125">
  <!-- Generator: Adobe Illustrator 29.1.0, SVG Export Plug-In . SVG Version: 2.1.0 Build 142)  -->
  <defs>
    <style>
      .st0 {
        fill: #3d4030;
      }

      .st1 {
        fill: #959d82;
      }
    </style>
  </defs>
  <g>
    <path class="st0" d="M5.54,52.71c-.31,0-.46-.28-.46-.84,0-.47.15-.71.46-.71h.77c1.7,0,3.23-.51,4.59-1.54,1.36-1.03,2.05-2.47,2.05-4.31V11.4c-.67-1.42-1.51-2.47-2.51-3.15s-2.3-1.14-3.9-1.35l-1-.06c-.21-.04-.35-.12-.42-.22-.08-.11-.12-.29-.12-.55,0-.51.18-.77.54-.77h15.98l28.88,34.68V12.62c0-1.8-.7-3.21-2.09-4.21-1.39-1.01-2.93-1.53-4.63-1.58h-.77c-.36,0-.54-.26-.54-.77s.18-.77.54-.77h17.99c.36,0,.54.26.54.77s-.18.77-.54.77h-.93c-1.7.04-3.22.57-4.56,1.58-1.34,1.01-2.01,2.41-2.01,4.21v40.09h-4.86L16.04,13.46v31.85c0,1.84.7,3.28,2.09,4.31,1.39,1.03,2.91,1.54,4.55,1.54h.85c.36,0,.54.24.54.71,0,.56-.18.84-.54.84H5.54Z"/>
    <path class="st0" d="M73.64,51.19c-2.93-1.57-5.2-3.61-6.79-6.15-1.6-2.53-2.39-5.17-2.39-7.91s.8-5.5,2.39-8.01c1.59-2.51,3.86-4.53,6.79-6.05s6.31-2.28,10.12-2.28,7.19.76,10.15,2.28c2.96,1.52,5.25,3.54,6.87,6.05s2.43,5.18,2.43,8.01-.81,5.38-2.43,7.91c-1.62,2.53-3.91,4.58-6.87,6.15-2.96,1.57-6.35,2.35-10.15,2.35s-7.18-.78-10.12-2.35ZM91.13,47.53c1.78-2.85,2.66-6.32,2.66-10.39s-.88-7.62-2.63-10.39c-1.75-2.77-4.22-4.15-7.41-4.15s-5.51,1.39-7.26,4.18c-1.75,2.79-2.63,6.24-2.63,10.36s.87,7.54,2.63,10.39c1.75,2.85,4.17,4.28,7.26,4.28s5.6-1.43,7.37-4.28Z"/>
    <path class="st0" d="M106.45,52.71c-.36,0-.54-.28-.54-.84,0-.47.18-.71.54-.71h.93c1.49,0,2.66-.19,3.51-.58s1.27-1.22,1.27-2.51l-.08-19.82c0-1.33-.39-2.21-1.16-2.64-.77-.43-2.06-.68-3.86-.77-.46-.04-.7-.36-.7-.97,0-.34.15-.54.46-.58.57-.17,5.3-1.01,14.21-2.51l-.08,27.28c0,1.29.44,2.12,1.31,2.51.87.39,2.06.58,3.55.58h.93c.36,0,.54.24.54.71,0,.56-.18.84-.54.84h-20.31ZM112.05,12.72c-1.11-.92-1.66-2.03-1.66-3.31s.55-2.46,1.66-3.38c1.11-.92,2.46-1.38,4.05-1.38s2.88.46,4.02,1.38c1.13.92,1.7,2.05,1.7,3.38s-.57,2.39-1.7,3.31c-1.13.92-2.47,1.38-4.02,1.38s-2.95-.46-4.05-1.38Z"/>
    <path class="st0" d="M130.23,43.05l-.08-.32c0-.34.21-.58.62-.71.1-.04.26-.06.46-.06.36,0,.64.15.85.45,4.58,6.05,10.09,9.07,16.52,9.07,2.37,0,4.16-.47,5.37-1.42s1.82-2.14,1.82-3.6c0-.94-.36-1.82-1.08-2.64-.72-.81-1.73-1.46-3.01-1.93-1.29-.47-3.6-1.11-6.95-1.93-.31-.09-1.24-.32-2.78-.71-1.54-.39-2.75-.77-3.63-1.16-2.11-.86-3.76-1.95-4.94-3.28-1.18-1.33-1.78-2.9-1.78-4.7,0-1.5.48-2.97,1.43-4.41s2.35-2.62,4.21-3.54c1.85-.92,4.07-1.38,6.64-1.38,1.49,0,2.82.1,3.98.29s2.59.48,4.29.87c1.18.3,1.9.45,2.16.45.77,0,1.53-.2,2.28-.61.75-.41,1.32-.93,1.74-1.58l3.4,9.52.08.39c0,.26-.21.47-.62.64-.21.09-.41.13-.62.13-.31,0-.57-.13-.77-.39-2.01-2.49-4.5-4.4-7.49-5.73-2.99-1.33-5.77-1.99-8.34-1.99-2.26,0-3.9.47-4.9,1.42-1,.94-1.51,1.91-1.51,2.9,0,.82.35,1.54,1.04,2.19.7.64,1.82,1.29,3.36,1.93.98.39,2.88.94,5.71,1.67,3.76.99,6.46,1.8,8.11,2.44,2.21.9,3.98,2.06,5.29,3.47s1.97,3.09,1.97,5.02c0,3-1.3,5.37-3.9,7.11-2.6,1.74-5.99,2.61-10.15,2.61-1.44,0-2.81-.11-4.09-.32-1.29-.21-2.81-.51-4.56-.9-1.6-.39-2.6-.58-3.01-.58-.72,0-1.39.17-2.01.51-.62.34-1.26.84-1.93,1.48l-3.16-10.68Z"/>
    <path class="st0" d="M201.42,45.11l-.08.45c-1.18,2.1-3.08,3.96-5.67,5.56-2.6,1.61-5.86,2.41-9.77,2.41s-7.15-.71-10.19-2.12c-3.04-1.42-5.42-3.36-7.14-5.82-1.73-2.47-2.59-5.16-2.59-8.08,0-2.66.73-5.28,2.2-7.85s3.64-4.7,6.52-6.37c2.88-1.67,6.31-2.51,10.27-2.51,2.88,0,5.53.56,7.95,1.67s4.41,2.7,5.99,4.76c1.57,2.06,2.53,4.5,2.9,7.34l-26.1.13c-.05.47-.08,1.22-.08,2.25,0,3.77,1.06,6.95,3.17,9.52,2.11,2.58,5.15,3.86,9.11,3.86,4.84,0,8.8-1.89,11.89-5.66.15-.21.39-.32.7-.32.05,0,.23.04.54.13.26.13.39.34.39.64ZM179.38,24.75c-1.73,1.44-2.87,4-3.43,7.69l16.37-.13v-1.09c-.05-2.7-.81-4.82-2.28-6.34-1.47-1.52-3.26-2.28-5.37-2.28-1.8,0-3.57.72-5.29,2.15Z"/>
    <path class="st0" d="M212.92,51.16c-1.75-1.59-2.68-3.9-2.78-6.95v-20.52h-6.72v-2.19c3.65-.68,6.68-2,9.07-3.96,2.39-1.95,4.05-5.03,4.98-9.23h1.54v13.19h9.81v2.19h-9.81l-.15,14.86.08,5.34c.26,3.99,2.06,5.99,5.4,5.99,1.08,0,2.01-.17,2.78-.52.77-.34,1.65-.94,2.63-1.8.26-.26.49-.39.7-.39s.42.1.66.29c.23.19.35.38.35.55,0,.09-.05.21-.15.39-1.44,1.84-3.04,3.16-4.79,3.96-1.75.79-3.73,1.19-5.95,1.19-3.35,0-5.89-.8-7.64-2.38Z"/>
    <path class="st0" d="M238.94,51.16c-1.75-1.59-2.68-3.9-2.78-6.95v-20.52h-6.72v-2.19c3.65-.68,6.68-2,9.07-3.96,2.39-1.95,4.05-5.03,4.98-9.23h1.54v13.19h9.81v2.19h-9.81l-.15,14.86.08,5.34c.26,3.99,2.06,5.99,5.41,5.99,1.08,0,2.01-.17,2.78-.52.77-.34,1.65-.94,2.63-1.8.26-.26.49-.39.7-.39s.42.1.66.29.35.38.35.55c0,.09-.05.21-.15.39-1.44,1.84-3.04,3.16-4.79,3.96-1.75.79-3.73,1.19-5.94,1.19-3.35,0-5.9-.8-7.64-2.38Z"/>
    <path class="st0" d="M293.14,45.11l-.08.45c-1.18,2.1-3.08,3.96-5.67,5.56-2.6,1.61-5.86,2.41-9.77,2.41s-7.15-.71-10.19-2.12c-3.04-1.42-5.42-3.36-7.14-5.82-1.73-2.47-2.59-5.16-2.59-8.08,0-2.66.73-5.28,2.2-7.85s3.64-4.7,6.52-6.37c2.88-1.67,6.31-2.51,10.27-2.51,2.88,0,5.53.56,7.95,1.67,2.42,1.12,4.41,2.7,5.98,4.76,1.57,2.06,2.53,4.5,2.9,7.34l-26.1.13c-.05.47-.08,1.22-.08,2.25,0,3.77,1.06,6.95,3.17,9.52,2.11,2.58,5.15,3.86,9.11,3.86,4.84,0,8.8-1.89,11.89-5.66.15-.21.39-.32.7-.32.05,0,.23.04.54.13.26.13.39.34.39.64ZM271.1,24.75c-1.73,1.44-2.87,4-3.43,7.69l16.37-.13v-1.09c-.05-2.7-.81-4.82-2.28-6.34-1.47-1.52-3.26-2.28-5.37-2.28-1.8,0-3.57.72-5.29,2.15Z"/>
    <path class="st0" d="M94.04,117.22c-.07-.14-.1-.34-.1-.61,0-.54.16-.81.47-.81h.81c1.72,0,3.09-.38,4.13-1.15,1.04-.77,1.56-2.21,1.56-4.33v-35.76c0-2.12-.52-3.56-1.56-4.3-1.04-.75-2.42-1.12-4.13-1.12h-.81c-.18,0-.3-.07-.37-.2s-.1-.34-.1-.61c0-.54.16-.81.47-.81l15.1-.07c5.1,0,8.62.02,10.56.07,2.98.05,5.73.54,8.26,1.49,2.53.95,4.55,2.31,6.06,4.1s2.27,3.85,2.27,6.2c0,3.02-1.25,5.47-3.76,7.35s-5.63,3.26-9.38,4.17c4.43.95,8.18,2.47,11.28,4.57,3.09,2.1,4.64,4.87,4.64,8.3,0,2.8-.87,5.24-2.61,7.31-1.74,2.08-4.05,3.67-6.94,4.78-2.89,1.11-6.03,1.66-9.41,1.66l-11.24.07-14.83-.07c-.18,0-.3-.07-.37-.2ZM111.41,89.79c5.96,0,10-.97,12.12-2.91s3.18-4.56,3.18-7.86c0-2.8-.94-5.09-2.81-6.87-1.87-1.78-4.71-2.68-8.5-2.68-1.99,0-3.41.33-4.27.98-.86.65-1.29,1.75-1.29,3.28v16.05h1.56ZM116.89,115.39c3.84,0,6.9-.99,9.18-2.98,2.28-1.99,3.42-4.92,3.42-8.8,0-3.61-1.3-6.48-3.89-8.6-2.6-2.12-7.33-3.18-14.19-3.18h-1.56v19.3c0,1.62.43,2.74,1.29,3.35.86.61,2.3.91,4.33.91h1.42Z"/>
    <path class="st0" d="M176.56,111.94l-.07.41c-.54,1.72-1.55,3.12-3.01,4.2s-2.99,1.63-4.57,1.63c-3.25,0-5.35-1.51-6.3-4.54-1.76,1.53-3.72,2.71-5.89,3.52-2.17.81-4.31,1.22-6.43,1.22-2.8,0-4.99-.64-6.57-1.93-1.58-1.29-2.37-3.1-2.37-5.45,0-3.43,1.87-6.16,5.62-8.19,1.04-.54,2.21-.98,3.52-1.32,1.31-.34,3.07-.73,5.28-1.18.68-.14,1.66-.35,2.95-.64,1.29-.29,2.43-.58,3.42-.85v-3.05c0-2.57-.08-4.41-.24-5.52-.16-1.11-.53-2.02-1.12-2.74-.86-1.13-2.19-1.69-3.99-1.69-1.22,0-2.26.37-3.12,1.12-.86.75-1.56,2.18-2.1,4.3-.41,1.54-1.01,2.68-1.79,3.42-.79.75-1.7,1.12-2.74,1.12s-1.96-.3-2.78-.91c-.81-.61-1.22-1.48-1.22-2.61,0-.86.35-1.93,1.05-3.22.7-1.29,2.07-2.47,4.1-3.56,2.03-1.08,4.9-1.63,8.6-1.63,2.71,0,4.99.36,6.84,1.08,1.85.72,3.3,1.69,4.33,2.91.81.9,1.35,1.9,1.63,2.98.27,1.08.41,2.41.41,3.99,0,3.07-.02,5.42-.07,7.04l-.07,7.59c0,1.94.24,3.21.71,3.79.47.59,1.05.88,1.73.88.54,0,1.11-.19,1.69-.58.59-.38,1.11-.96,1.56-1.73.14-.22.29-.34.47-.34.36,0,.54.16.54.47ZM158.58,113.9c1.29-.5,2.47-1.22,3.56-2.17-.14-1.04-.2-2.08-.2-3.11l.14-7.93c-4.33,1.08-7.52,2.4-9.55,3.96-2.03,1.56-3.05,3.49-3.05,5.79,0,1.22.47,2.22,1.42,3.01.95.79,2.26,1.19,3.93,1.19,1.22,0,2.47-.25,3.76-.75Z"/>
    <path class="st0" d="M176.15,107.27l-.07-.34c0-.36.18-.61.54-.75.09-.05.22-.07.41-.07.31,0,.56.16.74.47,4.02,6.37,8.85,9.55,14.5,9.55,2.08,0,3.65-.5,4.71-1.49s1.59-2.26,1.59-3.79c0-.99-.32-1.92-.95-2.78-.63-.86-1.51-1.53-2.64-2.03-1.13-.5-3.16-1.17-6.1-2.03-.27-.09-1.08-.34-2.44-.75-1.36-.41-2.42-.81-3.18-1.22-1.85-.9-3.3-2.05-4.33-3.45-1.04-1.4-1.56-3.05-1.56-4.94,0-1.58.42-3.13,1.25-4.64.84-1.51,2.07-2.75,3.69-3.72,1.63-.97,3.57-1.46,5.82-1.46,1.31,0,2.47.1,3.49.31,1.02.2,2.27.51,3.76.91,1.04.32,1.67.47,1.9.47.68,0,1.34-.21,2-.64.65-.43,1.16-.98,1.52-1.66l2.98,10.02.07.41c0,.27-.18.5-.54.68-.18.09-.36.14-.54.14-.27,0-.5-.14-.68-.41-1.76-2.62-3.95-4.63-6.57-6.03-2.62-1.4-5.06-2.1-7.31-2.1-1.99,0-3.42.5-4.3,1.49s-1.32,2.01-1.32,3.05c0,.86.3,1.63.91,2.3s1.59,1.35,2.95,2.03c.86.41,2.53.99,5.01,1.76,3.3,1.04,5.66,1.9,7.11,2.57,1.94.95,3.49,2.17,4.64,3.66,1.15,1.49,1.73,3.25,1.73,5.28,0,3.16-1.14,5.66-3.42,7.48s-5.25,2.74-8.91,2.74c-1.26,0-2.46-.11-3.59-.34-1.13-.23-2.46-.54-4-.95-1.4-.41-2.28-.61-2.64-.61-.63,0-1.22.18-1.76.54-.54.36-1.11.88-1.69,1.56l-2.78-11.24Z"/>
    <path class="st0" d="M206.16,117.42c-.32,0-.47-.29-.47-.88,0-.5.16-.75.47-.75h.81c1.31,0,2.34-.2,3.08-.61.74-.41,1.12-1.29,1.12-2.64l-.07-20.86c0-1.4-.34-2.33-1.02-2.78-.68-.45-1.81-.72-3.39-.81-.41-.04-.61-.38-.61-1.02,0-.36.14-.56.41-.61.5-.18,4.65-1.06,12.46-2.64l-.07,28.72c0,1.36.38,2.24,1.15,2.64.77.41,1.81.61,3.12.61h.81c.32,0,.47.25.47.75,0,.59-.16.88-.47.88h-17.81ZM211.07,75.33c-.97-.97-1.46-2.13-1.46-3.49s.49-2.58,1.46-3.56,2.15-1.46,3.56-1.46,2.53.49,3.52,1.46c.99.97,1.49,2.16,1.49,3.56s-.5,2.52-1.49,3.49c-.99.97-2.17,1.46-3.52,1.46s-2.59-.49-3.56-1.46Z"/>
    <path class="st0" d="M225.59,117.42c-.36,0-.54-.29-.54-.88,0-.5.18-.75.54-.75h.68c1.31,0,2.35-.2,3.12-.61.77-.41,1.15-1.29,1.15-2.64l-.14-38c0-1.44-.33-2.39-.98-2.84-.66-.45-1.75-.72-3.28-.81-.45,0-.68-.34-.68-1.02,0-.27.14-.43.41-.47,1.31-.31,3.23-.75,5.76-1.29,2.53-.54,4.76-.99,6.71-1.36v45.78c0,1.36.37,2.24,1.12,2.64.75.41,1.77.61,3.08.61h.75c.32,0,.47.25.47.75,0,.59-.16.88-.47.88h-17.68Z"/>
    <path class="st0" d="M244.69,117.42c-.32,0-.47-.29-.47-.88,0-.5.16-.75.47-.75h.81c1.31,0,2.34-.2,3.08-.61.74-.41,1.12-1.29,1.12-2.64l-.07-20.86c0-1.4-.34-2.33-1.02-2.78-.68-.45-1.81-.72-3.39-.81-.41-.04-.61-.38-.61-1.02,0-.36.14-.56.41-.61.5-.18,4.65-1.06,12.46-2.64l-.07,28.72c0,1.36.38,2.24,1.15,2.64.77.41,1.81.61,3.12.61h.81c.32,0,.47.25.47.75,0,.59-.16.88-.47.88h-17.81ZM249.6,75.33c-.97-.97-1.46-2.13-1.46-3.49s.49-2.58,1.46-3.56,2.15-1.46,3.56-1.46,2.53.49,3.52,1.46c.99.97,1.49,2.16,1.49,3.56s-.5,2.52-1.49,3.49c-.99.97-2.17,1.46-3.52,1.46s-2.59-.49-3.56-1.46Z"/>
    <path class="st0" d="M272.39,116.34c-2.57-1.31-4.67-3.24-6.3-5.79-1.63-2.55-2.44-5.61-2.44-9.18,0-2.75.67-5.49,2-8.2,1.33-2.71,3.28-4.94,5.86-6.71,2.57-1.76,5.64-2.64,9.21-2.64,3.07,0,5.6.44,7.59,1.32s3.43,1.94,4.33,3.18c.9,1.24,1.36,2.38,1.36,3.42s-.35,1.99-1.05,2.71c-.7.72-1.5,1.08-2.4,1.08-1.13,0-2.06-.35-2.78-1.05-.72-.7-1.44-1.7-2.17-3.01-.9-1.85-1.78-3.25-2.64-4.2-.86-.95-1.9-1.42-3.12-1.42-1.49,0-2.81.63-3.96,1.9-1.15,1.26-2.05,3.05-2.71,5.35-.66,2.3-.98,4.94-.98,7.93,0,3.25.49,5.94,1.46,8.06.97,2.12,2.21,3.66,3.72,4.61,1.51.95,3.13,1.42,4.84,1.42,4.29,0,7.7-1.8,10.23-5.42.18-.22.36-.34.54-.34.22,0,.41.05.54.14.32.14.47.34.47.61,0,.18-.05.32-.14.41-1.22,2.21-2.97,4.06-5.25,5.55-2.28,1.49-5,2.24-8.16,2.24-2.8,0-5.49-.66-8.06-1.96Z"/>
  </g>
  <path class="st1" d="M82.72,91.19c.23.06.37.16.42.29.04.1.02.26-.07.48-1.55,4.35-4.42,7.38-8.62,9.08-3,1.22-6.16,1.57-9.46,1.06-2.75,2.94-6.42,5.34-11,7.2-3,1.22-5.69,1.85-8.08,1.89-2.38.04-4.36-.4-5.92-1.32-1.56-.92-2.67-2.18-3.32-3.77-.98-2.41-.81-4.88.52-7.41,1.33-2.53,3.5-5.36,6.54-8.49-2.69-2.43-4.49-4.75-5.39-6.97-.7-1.73-.89-3.48-.56-5.26.33-1.78,1.15-3.42,2.48-4.9,1.32-1.49,3.04-2.66,5.16-3.52,1.92-.78,3.83-1.25,5.73-1.39,1.89-.14,3.54.09,4.96.69,1.41.6,2.38,1.55,2.91,2.86.74,1.82.4,3.83-1.02,6.02-1.42,2.19-3.69,4.79-6.82,7.81l4.42,3.27c3.83,2.8,7.66,4.99,11.47,6.54.87-1.95,1.37-3.89,1.5-5.82.13-1.93-.06-3.55-.59-4.85s-1.37-2.04-2.56-2.32-2.65-.06-4.38.64c-.31.13-.55-.02-.72-.45-.16-.39-.08-.65.22-.77l14.49-5.89c.27-.11.48.03.64.42.17.42.12.69-.15.8-1.54.63-2.74,1.5-3.6,2.63-.86,1.13-1.19,2.56-.98,4.29.54,4.3-.08,8.3-1.84,12.02,3.41,1.12,5.99,1.32,7.72.62,1.12-.45,2.04-1.08,2.76-1.89.73-.81,1.4-1.83,2.02-3.07.13-.24.28-.4.48-.48s.4-.09.63-.03ZM62.28,101.56c-4.02-1.06-8.33-3.33-12.93-6.8l-1.19-.94-2.89-2.3c-1.49,1.74-2.39,3.33-2.71,4.75-.32,1.42-.18,2.86.41,4.33.66,1.63,1.7,2.9,3.1,3.83,1.41.93,3.05,1.43,4.92,1.5,1.87.08,3.8-.3,5.81-1.11s3.83-1.9,5.47-3.25ZM43.79,73.8c-.46,1.29-.4,2.65.18,4.08.69,1.69,2.55,3.8,5.6,6.32,1.93-2.19,3.23-4.11,3.88-5.76.65-1.65.67-3.22.06-4.72-.56-1.37-1.43-2.33-2.62-2.89-1.19-.56-2.62-.5-4.27.17-1.42.58-2.37,1.51-2.83,2.8Z"/>
</svg>